<svg width="28" height="28" viewBox="0 0 28 28" fill="none" xmlns="http://www.w3.org/2000/svg">
<path d="M14 2C15.0262 2 16.0132 2.39444 16.7568 3.10172C17.5004 3.80901 17.9437 4.77504 17.995 5.8L18 6H23C23.2549 6.00028 23.5 6.09788 23.6854 6.27285C23.8707 6.44782 23.9822 6.68695 23.9972 6.94139C24.0121 7.19584 23.9293 7.44638 23.7657 7.64183C23.6021 7.83729 23.3701 7.9629 23.117 7.993L23 8H22.151L20.971 22.553C20.8949 23.4921 20.4681 24.3681 19.7754 25.0068C19.0828 25.6455 18.1752 26.0001 17.233 26H10.767C9.82484 26.0001 8.91719 25.6455 8.22457 25.0068C7.53195 24.3681 7.10513 23.4921 7.029 22.553L5.848 8H5C4.75507 7.99997 4.51866 7.91004 4.33563 7.74728C4.15259 7.58453 4.03566 7.36025 4.007 7.117L4 7C4.00003 6.75507 4.08996 6.51866 4.25272 6.33563C4.41547 6.15259 4.63975 6.03566 4.883 6.007L5 6H10C10 4.93913 10.4214 3.92172 11.1716 3.17157C11.9217 2.42143 12.9391 2 14 2V2ZM11.75 11.25C11.5688 11.25 11.3937 11.3156 11.2571 11.4348C11.1205 11.5539 11.0316 11.7184 11.007 11.898L11 12V20L11.007 20.102C11.0317 20.2815 11.1206 20.446 11.2571 20.5651C11.3937 20.6842 11.5688 20.7498 11.75 20.7498C11.9312 20.7498 12.1063 20.6842 12.2429 20.5651C12.3794 20.446 12.4683 20.2815 12.493 20.102L12.5 20V12L12.493 11.898C12.4684 11.7184 12.3795 11.5539 12.2429 11.4348C12.1063 11.3156 11.9312 11.25 11.75 11.25ZM16.25 11.25C16.0688 11.25 15.8937 11.3156 15.7571 11.4348C15.6205 11.5539 15.5316 11.7184 15.507 11.898L15.5 12V20L15.507 20.102C15.5317 20.2815 15.6206 20.446 15.7571 20.5651C15.8937 20.6842 16.0688 20.7498 16.25 20.7498C16.4312 20.7498 16.6063 20.6842 16.7429 20.5651C16.8794 20.446 16.9683 20.2815 16.993 20.102L17 20V12L16.993 11.898C16.9684 11.7184 16.8795 11.5539 16.7429 11.4348C16.6063 11.3156 16.4312 11.25 16.25 11.25ZM14 4C13.4954 3.99984 13.0094 4.19041 12.6395 4.5335C12.2695 4.87659 12.0428 5.34684 12.005 5.85L12 6H16L15.995 5.85C15.9572 5.34684 15.7305 4.87659 15.3605 4.5335C14.9906 4.19041 14.5046 3.99984 14 4V4Z" fill="#989898"/>
</svg>
