<svg width="28" height="28" viewBox="0 0 28 28" fill="none" xmlns="http://www.w3.org/2000/svg">
<path d="M3.28221 18.0443L1.80444 24.422C1.75346 24.6552 1.75521 24.8968 1.80955 25.1291C1.8639 25.3615 1.96947 25.5788 2.11855 25.7652C2.26764 25.9515 2.45647 26.1022 2.67125 26.2063C2.88604 26.3103 3.12135 26.365 3.35999 26.3665C3.47119 26.3777 3.58324 26.3777 3.69444 26.3665L10.1111 24.8887L22.4311 12.6154L15.5555 5.75537L3.28221 18.0443Z" fill="#989898"/>
<path d="M26.3045 6.47114L21.7156 1.88225C21.4139 1.58208 21.0056 1.41357 20.58 1.41357C20.1544 1.41357 19.7461 1.58208 19.4445 1.88225L16.8933 4.43336L23.7611 11.3011L26.3122 8.75003C26.4615 8.59998 26.5798 8.42196 26.6602 8.22617C26.7406 8.03037 26.7816 7.82064 26.7809 7.60897C26.7802 7.39731 26.7377 7.18786 26.656 6.99262C26.5742 6.79737 26.4548 6.62017 26.3045 6.47114V6.47114Z" fill="#989898"/>
</svg>
