<svg width="22" height="29" viewBox="0 0 22 29" fill="none" xmlns="http://www.w3.org/2000/svg">
<path d="M19.1703 9.58516H17.801V6.84654C17.801 3.06725 14.7338 0 10.9545 0C7.17518 0 4.10793 3.06725 4.10793 6.84654V9.58516H2.73862C1.23238 9.58516 0 10.8175 0 12.3238V26.0169C0 27.5231 1.23238 28.7555 2.73862 28.7555H19.1703C20.6766 28.7555 21.9089 27.5231 21.9089 26.0169V12.3238C21.9089 10.8175 20.6766 9.58516 19.1703 9.58516ZM10.9545 21.9089C9.44823 21.9089 8.21585 20.6766 8.21585 19.1703C8.21585 17.6641 9.44823 16.4317 10.9545 16.4317C12.4607 16.4317 13.6931 17.6641 13.6931 19.1703C13.6931 20.6766 12.4607 21.9089 10.9545 21.9089ZM15.1993 9.58516H6.70961V6.84654C6.70961 4.50503 8.61295 2.60169 10.9545 2.60169C13.296 2.60169 15.1993 4.50503 15.1993 6.84654V9.58516Z" fill="#BCBCBC"/>
</svg>
