<svg width="23" height="16" viewBox="0 0 23 16" fill="none" xmlns="http://www.w3.org/2000/svg">
<path d="M11.6985 0.5C6.69849 0.5 2.42849 3.61 0.698486 8C2.42849 12.39 6.69849 15.5 11.6985 15.5C16.6985 15.5 20.9685 12.39 22.6985 8C20.9685 3.61 16.6985 0.5 11.6985 0.5ZM11.6985 13C8.93849 13 6.69849 10.76 6.69849 8C6.69849 5.24 8.93849 3 11.6985 3C14.4585 3 16.6985 5.24 16.6985 8C16.6985 10.76 14.4585 13 11.6985 13ZM11.6985 5C10.0385 5 8.69849 6.34 8.69849 8C8.69849 9.66 10.0385 11 11.6985 11C13.3585 11 14.6985 9.66 14.6985 8C14.6985 6.34 13.3585 5 11.6985 5Z" fill="#989898"/>
</svg>
