<svg width="112" height="112" viewBox="0 0 112 112" fill="none" xmlns="http://www.w3.org/2000/svg">
<path d="M56 0C70.8521 0 85.0959 5.89998 95.598 16.402C106.1 26.9041 112 41.1479 112 56C112 70.8521 106.1 85.0959 95.598 95.598C85.0959 106.1 70.8521 112 56 112C41.1479 112 26.9041 106.1 16.402 95.598C5.89998 85.0959 0 70.8521 0 56C0 41.1479 5.89998 26.9041 16.402 16.402C26.9041 5.89998 41.1479 0 56 0V0ZM49.024 67.048L36.584 54.6C36.138 54.154 35.6086 53.8003 35.0259 53.5589C34.4432 53.3176 33.8187 53.1933 33.188 53.1933C32.5573 53.1933 31.9328 53.3176 31.3501 53.5589C30.7674 53.8003 30.238 54.154 29.792 54.6C28.8913 55.5007 28.3853 56.7223 28.3853 57.996C28.3853 59.2697 28.8913 60.4913 29.792 61.392L45.632 77.232C46.0767 77.6802 46.6057 78.0359 47.1886 78.2787C47.7715 78.5215 48.3966 78.6465 49.028 78.6465C49.6594 78.6465 50.2845 78.5215 50.8674 78.2787C51.4503 78.0359 51.9793 77.6802 52.424 77.232L85.224 44.424C85.6759 43.9799 86.0355 43.4507 86.2818 42.8669C86.5282 42.2832 86.6566 41.6564 86.6595 41.0228C86.6625 40.3892 86.5399 39.7612 86.299 39.1752C86.0581 38.5892 85.7035 38.0566 85.2557 37.6083C84.8079 37.16 84.2758 36.8048 83.6901 36.5632C83.1043 36.3215 82.4765 36.1983 81.8429 36.2005C81.2093 36.2027 80.5824 36.3303 79.9983 36.576C79.4143 36.8217 78.8847 37.1806 78.44 37.632L49.024 67.048Z" fill="#3B9984"/>
</svg>
